<mxfile host="app.diagrams.net" agent="Mozilla/5.0 (Windows NT 10.0; Win64; x64) AppleWebKit/537.36 (KHTML, like Gecko) Chrome/129.0.0.0 Safari/537.36" version="24.7.17">
  <diagram id="C5RBs43oDa-KdzZeNtuy" name="Page-1">
    <mxGraphModel dx="1477" dy="2025" grid="1" gridSize="10" guides="1" tooltips="1" connect="1" arrows="1" fold="1" page="1" pageScale="1" pageWidth="827" pageHeight="1169" math="0" shadow="0">
      <root>
        <mxCell id="WIyWlLk6GJQsqaUBKTNV-0" />
        <mxCell id="WIyWlLk6GJQsqaUBKTNV-1" parent="WIyWlLk6GJQsqaUBKTNV-0" />
        <mxCell id="gC-gnkAE6lD0mVGR8m6e-18" value="TR6FKP_Vendeglatas" style="ellipse;whiteSpace=wrap;html=1;" vertex="1" parent="WIyWlLk6GJQsqaUBKTNV-1">
          <mxGeometry x="820" y="-110" width="120" height="80" as="geometry" />
        </mxCell>
        <mxCell id="gC-gnkAE6lD0mVGR8m6e-19" value="Etterem" style="ellipse;shape=doubleEllipse;whiteSpace=wrap;html=1;" vertex="1" parent="WIyWlLk6GJQsqaUBKTNV-1">
          <mxGeometry x="530" y="160" width="100" height="60" as="geometry" />
        </mxCell>
        <mxCell id="gC-gnkAE6lD0mVGR8m6e-32" value="" style="edgeStyle=orthogonalEdgeStyle;rounded=0;orthogonalLoop=1;jettySize=auto;html=1;endArrow=none;endFill=0;" edge="1" parent="WIyWlLk6GJQsqaUBKTNV-1" source="gC-gnkAE6lD0mVGR8m6e-20" target="gC-gnkAE6lD0mVGR8m6e-21">
          <mxGeometry relative="1" as="geometry" />
        </mxCell>
        <mxCell id="gC-gnkAE6lD0mVGR8m6e-20" value="" style="whiteSpace=wrap;html=1;" vertex="1" parent="WIyWlLk6GJQsqaUBKTNV-1">
          <mxGeometry x="339" y="375" width="50" height="90" as="geometry" />
        </mxCell>
        <mxCell id="gC-gnkAE6lD0mVGR8m6e-21" value="Nev" style="ellipse;whiteSpace=wrap;html=1;" vertex="1" parent="WIyWlLk6GJQsqaUBKTNV-1">
          <mxGeometry x="314" y="270" width="100" height="60" as="geometry" />
        </mxCell>
        <mxCell id="gC-gnkAE6lD0mVGR8m6e-22" value="Cim" style="ellipse;whiteSpace=wrap;html=1;" vertex="1" parent="WIyWlLk6GJQsqaUBKTNV-1">
          <mxGeometry x="530" y="270" width="100" height="60" as="geometry" />
        </mxCell>
        <mxCell id="gC-gnkAE6lD0mVGR8m6e-23" value="Csillag" style="ellipse;whiteSpace=wrap;html=1;" vertex="1" parent="WIyWlLk6GJQsqaUBKTNV-1">
          <mxGeometry x="730" y="270" width="100" height="60" as="geometry" />
        </mxCell>
        <mxCell id="gC-gnkAE6lD0mVGR8m6e-24" value="Ekod" style="rhombus;whiteSpace=wrap;html=1;fontStyle=0" vertex="1" parent="WIyWlLk6GJQsqaUBKTNV-1">
          <mxGeometry x="259" y="205" width="80" height="80" as="geometry" />
        </mxCell>
        <mxCell id="gC-gnkAE6lD0mVGR8m6e-25" value="Varos" style="ellipse;whiteSpace=wrap;html=1;" vertex="1" parent="WIyWlLk6GJQsqaUBKTNV-1">
          <mxGeometry x="420" y="390" width="100" height="60" as="geometry" />
        </mxCell>
        <mxCell id="gC-gnkAE6lD0mVGR8m6e-27" value="Utca" style="ellipse;whiteSpace=wrap;html=1;" vertex="1" parent="WIyWlLk6GJQsqaUBKTNV-1">
          <mxGeometry x="530" y="390" width="100" height="60" as="geometry" />
        </mxCell>
        <mxCell id="gC-gnkAE6lD0mVGR8m6e-28" value="Hazszam" style="ellipse;whiteSpace=wrap;html=1;" vertex="1" parent="WIyWlLk6GJQsqaUBKTNV-1">
          <mxGeometry x="640" y="390" width="100" height="60" as="geometry" />
        </mxCell>
        <mxCell id="gC-gnkAE6lD0mVGR8m6e-33" value="" style="edgeStyle=orthogonalEdgeStyle;rounded=0;orthogonalLoop=1;jettySize=auto;html=1;endArrow=none;endFill=0;" edge="1" parent="WIyWlLk6GJQsqaUBKTNV-1" source="gC-gnkAE6lD0mVGR8m6e-29" target="gC-gnkAE6lD0mVGR8m6e-25">
          <mxGeometry relative="1" as="geometry" />
        </mxCell>
        <mxCell id="gC-gnkAE6lD0mVGR8m6e-29" value="" style="whiteSpace=wrap;html=1;" vertex="1" parent="WIyWlLk6GJQsqaUBKTNV-1">
          <mxGeometry x="445" y="490" width="50" height="90" as="geometry" />
        </mxCell>
        <mxCell id="gC-gnkAE6lD0mVGR8m6e-34" value="" style="edgeStyle=orthogonalEdgeStyle;rounded=0;orthogonalLoop=1;jettySize=auto;html=1;endArrow=none;endFill=0;" edge="1" parent="WIyWlLk6GJQsqaUBKTNV-1" source="gC-gnkAE6lD0mVGR8m6e-30" target="gC-gnkAE6lD0mVGR8m6e-27">
          <mxGeometry relative="1" as="geometry" />
        </mxCell>
        <mxCell id="gC-gnkAE6lD0mVGR8m6e-30" value="" style="whiteSpace=wrap;html=1;" vertex="1" parent="WIyWlLk6GJQsqaUBKTNV-1">
          <mxGeometry x="555" y="490" width="50" height="90" as="geometry" />
        </mxCell>
        <mxCell id="gC-gnkAE6lD0mVGR8m6e-35" value="" style="edgeStyle=orthogonalEdgeStyle;rounded=0;orthogonalLoop=1;jettySize=auto;html=1;endArrow=none;endFill=0;" edge="1" parent="WIyWlLk6GJQsqaUBKTNV-1" source="gC-gnkAE6lD0mVGR8m6e-31" target="gC-gnkAE6lD0mVGR8m6e-28">
          <mxGeometry relative="1" as="geometry" />
        </mxCell>
        <mxCell id="gC-gnkAE6lD0mVGR8m6e-31" value="" style="whiteSpace=wrap;html=1;" vertex="1" parent="WIyWlLk6GJQsqaUBKTNV-1">
          <mxGeometry x="665" y="490" width="50" height="90" as="geometry" />
        </mxCell>
        <mxCell id="gC-gnkAE6lD0mVGR8m6e-40" value="" style="edgeStyle=orthogonalEdgeStyle;rounded=0;orthogonalLoop=1;jettySize=auto;html=1;endArrow=none;endFill=0;" edge="1" parent="WIyWlLk6GJQsqaUBKTNV-1" source="gC-gnkAE6lD0mVGR8m6e-39" target="gC-gnkAE6lD0mVGR8m6e-23">
          <mxGeometry relative="1" as="geometry" />
        </mxCell>
        <mxCell id="gC-gnkAE6lD0mVGR8m6e-39" value="" style="whiteSpace=wrap;html=1;" vertex="1" parent="WIyWlLk6GJQsqaUBKTNV-1">
          <mxGeometry x="755" y="375" width="50" height="90" as="geometry" />
        </mxCell>
        <mxCell id="gC-gnkAE6lD0mVGR8m6e-46" value="" style="endArrow=none;html=1;rounded=0;exitX=1;exitY=0.5;exitDx=0;exitDy=0;entryX=0.5;entryY=1;entryDx=0;entryDy=0;" edge="1" parent="WIyWlLk6GJQsqaUBKTNV-1" source="gC-gnkAE6lD0mVGR8m6e-24" target="gC-gnkAE6lD0mVGR8m6e-19">
          <mxGeometry width="50" height="50" relative="1" as="geometry">
            <mxPoint x="350" y="240" as="sourcePoint" />
            <mxPoint x="400" y="190" as="targetPoint" />
          </mxGeometry>
        </mxCell>
        <mxCell id="gC-gnkAE6lD0mVGR8m6e-47" value="" style="endArrow=none;html=1;rounded=0;exitX=0.5;exitY=0;exitDx=0;exitDy=0;entryX=0.5;entryY=1;entryDx=0;entryDy=0;" edge="1" parent="WIyWlLk6GJQsqaUBKTNV-1" source="gC-gnkAE6lD0mVGR8m6e-21" target="gC-gnkAE6lD0mVGR8m6e-19">
          <mxGeometry width="50" height="50" relative="1" as="geometry">
            <mxPoint x="290" y="255" as="sourcePoint" />
            <mxPoint x="590" y="230" as="targetPoint" />
          </mxGeometry>
        </mxCell>
        <mxCell id="gC-gnkAE6lD0mVGR8m6e-48" value="" style="endArrow=none;html=1;rounded=0;exitX=0.5;exitY=0;exitDx=0;exitDy=0;entryX=0.5;entryY=1;entryDx=0;entryDy=0;" edge="1" parent="WIyWlLk6GJQsqaUBKTNV-1" source="gC-gnkAE6lD0mVGR8m6e-22" target="gC-gnkAE6lD0mVGR8m6e-19">
          <mxGeometry width="50" height="50" relative="1" as="geometry">
            <mxPoint x="374" y="280" as="sourcePoint" />
            <mxPoint x="590" y="230" as="targetPoint" />
          </mxGeometry>
        </mxCell>
        <mxCell id="gC-gnkAE6lD0mVGR8m6e-49" value="" style="endArrow=none;html=1;rounded=0;exitX=0.5;exitY=0;exitDx=0;exitDy=0;entryX=0.5;entryY=1;entryDx=0;entryDy=0;" edge="1" parent="WIyWlLk6GJQsqaUBKTNV-1" source="gC-gnkAE6lD0mVGR8m6e-23" target="gC-gnkAE6lD0mVGR8m6e-19">
          <mxGeometry width="50" height="50" relative="1" as="geometry">
            <mxPoint x="590" y="280" as="sourcePoint" />
            <mxPoint x="590" y="230" as="targetPoint" />
          </mxGeometry>
        </mxCell>
        <mxCell id="gC-gnkAE6lD0mVGR8m6e-50" value="" style="endArrow=none;html=1;rounded=0;exitX=0.5;exitY=1;exitDx=0;exitDy=0;entryX=0.5;entryY=0;entryDx=0;entryDy=0;" edge="1" parent="WIyWlLk6GJQsqaUBKTNV-1" source="gC-gnkAE6lD0mVGR8m6e-22" target="gC-gnkAE6lD0mVGR8m6e-25">
          <mxGeometry width="50" height="50" relative="1" as="geometry">
            <mxPoint x="790" y="280" as="sourcePoint" />
            <mxPoint x="590" y="230" as="targetPoint" />
          </mxGeometry>
        </mxCell>
        <mxCell id="gC-gnkAE6lD0mVGR8m6e-51" value="" style="endArrow=none;html=1;rounded=0;exitX=0.5;exitY=1;exitDx=0;exitDy=0;entryX=0.5;entryY=0;entryDx=0;entryDy=0;" edge="1" parent="WIyWlLk6GJQsqaUBKTNV-1" source="gC-gnkAE6lD0mVGR8m6e-22" target="gC-gnkAE6lD0mVGR8m6e-27">
          <mxGeometry width="50" height="50" relative="1" as="geometry">
            <mxPoint x="590" y="340" as="sourcePoint" />
            <mxPoint x="480" y="400" as="targetPoint" />
          </mxGeometry>
        </mxCell>
        <mxCell id="gC-gnkAE6lD0mVGR8m6e-52" value="" style="endArrow=none;html=1;rounded=0;exitX=0.5;exitY=1;exitDx=0;exitDy=0;entryX=0.5;entryY=0;entryDx=0;entryDy=0;" edge="1" parent="WIyWlLk6GJQsqaUBKTNV-1" source="gC-gnkAE6lD0mVGR8m6e-22" target="gC-gnkAE6lD0mVGR8m6e-28">
          <mxGeometry width="50" height="50" relative="1" as="geometry">
            <mxPoint x="590" y="340" as="sourcePoint" />
            <mxPoint x="590" y="400" as="targetPoint" />
          </mxGeometry>
        </mxCell>
        <mxCell id="gC-gnkAE6lD0mVGR8m6e-53" value="Foszakacs" style="ellipse;shape=doubleEllipse;whiteSpace=wrap;html=1;" vertex="1" parent="WIyWlLk6GJQsqaUBKTNV-1">
          <mxGeometry x="1060" y="160" width="100" height="60" as="geometry" />
        </mxCell>
        <mxCell id="gC-gnkAE6lD0mVGR8m6e-54" value="Nev" style="ellipse;whiteSpace=wrap;html=1;" vertex="1" parent="WIyWlLk6GJQsqaUBKTNV-1">
          <mxGeometry x="930" y="270" width="100" height="60" as="geometry" />
        </mxCell>
        <mxCell id="gC-gnkAE6lD0mVGR8m6e-55" value="Eletkor" style="ellipse;whiteSpace=wrap;html=1;" vertex="1" parent="WIyWlLk6GJQsqaUBKTNV-1">
          <mxGeometry x="1060" y="270" width="100" height="60" as="geometry" />
        </mxCell>
        <mxCell id="gC-gnkAE6lD0mVGR8m6e-57" value="Vegzetseg" style="ellipse;shape=doubleEllipse;whiteSpace=wrap;html=1;fillColor=#dae8fc;strokeColor=#6c8ebf;" vertex="1" parent="WIyWlLk6GJQsqaUBKTNV-1">
          <mxGeometry x="1190.5" y="270" width="100" height="60" as="geometry" />
        </mxCell>
        <mxCell id="gC-gnkAE6lD0mVGR8m6e-58" value="F&lt;span style=&quot;background-color: initial;&quot;&gt;kod&lt;/span&gt;" style="rhombus;whiteSpace=wrap;html=1;fontStyle=4" vertex="1" parent="WIyWlLk6GJQsqaUBKTNV-1">
          <mxGeometry x="1266" y="205" width="80" height="80" as="geometry" />
        </mxCell>
        <mxCell id="gC-gnkAE6lD0mVGR8m6e-59" value="" style="whiteSpace=wrap;html=1;" vertex="1" parent="WIyWlLk6GJQsqaUBKTNV-1">
          <mxGeometry x="955" y="360" width="50" height="90" as="geometry" />
        </mxCell>
        <mxCell id="gC-gnkAE6lD0mVGR8m6e-60" value="" style="whiteSpace=wrap;html=1;" vertex="1" parent="WIyWlLk6GJQsqaUBKTNV-1">
          <mxGeometry x="1085" y="360" width="50" height="90" as="geometry" />
        </mxCell>
        <mxCell id="gC-gnkAE6lD0mVGR8m6e-61" value="" style="whiteSpace=wrap;html=1;" vertex="1" parent="WIyWlLk6GJQsqaUBKTNV-1">
          <mxGeometry x="1216" y="360" width="50" height="90" as="geometry" />
        </mxCell>
        <mxCell id="gC-gnkAE6lD0mVGR8m6e-62" value="" style="edgeStyle=orthogonalEdgeStyle;rounded=0;orthogonalLoop=1;jettySize=auto;html=1;endArrow=none;endFill=0;exitX=0.5;exitY=0;exitDx=0;exitDy=0;entryX=0.5;entryY=1;entryDx=0;entryDy=0;" edge="1" parent="WIyWlLk6GJQsqaUBKTNV-1" source="gC-gnkAE6lD0mVGR8m6e-59" target="gC-gnkAE6lD0mVGR8m6e-54">
          <mxGeometry relative="1" as="geometry">
            <mxPoint x="790" y="385" as="sourcePoint" />
            <mxPoint x="790" y="340" as="targetPoint" />
          </mxGeometry>
        </mxCell>
        <mxCell id="gC-gnkAE6lD0mVGR8m6e-63" value="" style="edgeStyle=orthogonalEdgeStyle;rounded=0;orthogonalLoop=1;jettySize=auto;html=1;endArrow=none;endFill=0;exitX=0.5;exitY=0;exitDx=0;exitDy=0;entryX=0.5;entryY=1;entryDx=0;entryDy=0;" edge="1" parent="WIyWlLk6GJQsqaUBKTNV-1" source="gC-gnkAE6lD0mVGR8m6e-60" target="gC-gnkAE6lD0mVGR8m6e-55">
          <mxGeometry relative="1" as="geometry">
            <mxPoint x="990" y="370" as="sourcePoint" />
            <mxPoint x="990" y="340" as="targetPoint" />
          </mxGeometry>
        </mxCell>
        <mxCell id="gC-gnkAE6lD0mVGR8m6e-64" value="" style="edgeStyle=orthogonalEdgeStyle;rounded=0;orthogonalLoop=1;jettySize=auto;html=1;endArrow=none;endFill=0;exitX=0.5;exitY=0;exitDx=0;exitDy=0;entryX=0.5;entryY=1;entryDx=0;entryDy=0;" edge="1" parent="WIyWlLk6GJQsqaUBKTNV-1" source="gC-gnkAE6lD0mVGR8m6e-61" target="gC-gnkAE6lD0mVGR8m6e-57">
          <mxGeometry relative="1" as="geometry">
            <mxPoint x="1130" y="370" as="sourcePoint" />
            <mxPoint x="1120" y="340" as="targetPoint" />
          </mxGeometry>
        </mxCell>
        <mxCell id="gC-gnkAE6lD0mVGR8m6e-65" value="" style="rounded=0;orthogonalLoop=1;jettySize=auto;html=1;endArrow=none;endFill=0;exitX=0;exitY=0.5;exitDx=0;exitDy=0;entryX=0.5;entryY=1;entryDx=0;entryDy=0;" edge="1" parent="WIyWlLk6GJQsqaUBKTNV-1" source="gC-gnkAE6lD0mVGR8m6e-58" target="gC-gnkAE6lD0mVGR8m6e-53">
          <mxGeometry relative="1" as="geometry">
            <mxPoint x="1251" y="370" as="sourcePoint" />
            <mxPoint x="1251" y="340" as="targetPoint" />
          </mxGeometry>
        </mxCell>
        <mxCell id="gC-gnkAE6lD0mVGR8m6e-67" value="" style="rounded=0;orthogonalLoop=1;jettySize=auto;html=1;endArrow=none;endFill=0;exitX=0.5;exitY=0;exitDx=0;exitDy=0;entryX=0.5;entryY=1;entryDx=0;entryDy=0;" edge="1" parent="WIyWlLk6GJQsqaUBKTNV-1" source="gC-gnkAE6lD0mVGR8m6e-57" target="gC-gnkAE6lD0mVGR8m6e-53">
          <mxGeometry relative="1" as="geometry">
            <mxPoint x="1330" y="255" as="sourcePoint" />
            <mxPoint x="1130" y="230" as="targetPoint" />
          </mxGeometry>
        </mxCell>
        <mxCell id="gC-gnkAE6lD0mVGR8m6e-68" value="" style="rounded=0;orthogonalLoop=1;jettySize=auto;html=1;endArrow=none;endFill=0;exitX=0.5;exitY=0;exitDx=0;exitDy=0;entryX=0.5;entryY=1;entryDx=0;entryDy=0;" edge="1" parent="WIyWlLk6GJQsqaUBKTNV-1" source="gC-gnkAE6lD0mVGR8m6e-55" target="gC-gnkAE6lD0mVGR8m6e-53">
          <mxGeometry relative="1" as="geometry">
            <mxPoint x="1251" y="280" as="sourcePoint" />
            <mxPoint x="1130" y="230" as="targetPoint" />
          </mxGeometry>
        </mxCell>
        <mxCell id="gC-gnkAE6lD0mVGR8m6e-69" value="" style="rounded=0;orthogonalLoop=1;jettySize=auto;html=1;endArrow=none;endFill=0;exitX=0.5;exitY=0;exitDx=0;exitDy=0;entryX=0.5;entryY=1;entryDx=0;entryDy=0;" edge="1" parent="WIyWlLk6GJQsqaUBKTNV-1" source="gC-gnkAE6lD0mVGR8m6e-54" target="gC-gnkAE6lD0mVGR8m6e-53">
          <mxGeometry relative="1" as="geometry">
            <mxPoint x="1120" y="280" as="sourcePoint" />
            <mxPoint x="1130" y="230" as="targetPoint" />
          </mxGeometry>
        </mxCell>
        <mxCell id="gC-gnkAE6lD0mVGR8m6e-70" value="Szakacs" style="ellipse;shape=doubleEllipse;whiteSpace=wrap;html=1;" vertex="1" parent="WIyWlLk6GJQsqaUBKTNV-1">
          <mxGeometry x="1550" y="160" width="100" height="60" as="geometry" />
        </mxCell>
        <mxCell id="gC-gnkAE6lD0mVGR8m6e-71" value="Nev" style="ellipse;whiteSpace=wrap;html=1;" vertex="1" parent="WIyWlLk6GJQsqaUBKTNV-1">
          <mxGeometry x="1420" y="270" width="100" height="60" as="geometry" />
        </mxCell>
        <mxCell id="gC-gnkAE6lD0mVGR8m6e-72" value="Reszleg" style="ellipse;whiteSpace=wrap;html=1;" vertex="1" parent="WIyWlLk6GJQsqaUBKTNV-1">
          <mxGeometry x="1550" y="270" width="100" height="60" as="geometry" />
        </mxCell>
        <mxCell id="gC-gnkAE6lD0mVGR8m6e-73" value="Vegzetseg" style="ellipse;shape=doubleEllipse;whiteSpace=wrap;html=1;fillColor=#dae8fc;strokeColor=#6c8ebf;" vertex="1" parent="WIyWlLk6GJQsqaUBKTNV-1">
          <mxGeometry x="1680.5" y="270" width="100" height="60" as="geometry" />
        </mxCell>
        <mxCell id="gC-gnkAE6lD0mVGR8m6e-74" value="Szkod" style="rhombus;whiteSpace=wrap;html=1;fontStyle=4" vertex="1" parent="WIyWlLk6GJQsqaUBKTNV-1">
          <mxGeometry x="1760" y="205" width="80" height="80" as="geometry" />
        </mxCell>
        <mxCell id="gC-gnkAE6lD0mVGR8m6e-75" value="" style="whiteSpace=wrap;html=1;" vertex="1" parent="WIyWlLk6GJQsqaUBKTNV-1">
          <mxGeometry x="1445" y="360" width="50" height="90" as="geometry" />
        </mxCell>
        <mxCell id="gC-gnkAE6lD0mVGR8m6e-76" value="" style="whiteSpace=wrap;html=1;" vertex="1" parent="WIyWlLk6GJQsqaUBKTNV-1">
          <mxGeometry x="1575" y="360" width="50" height="90" as="geometry" />
        </mxCell>
        <mxCell id="gC-gnkAE6lD0mVGR8m6e-77" value="" style="whiteSpace=wrap;html=1;" vertex="1" parent="WIyWlLk6GJQsqaUBKTNV-1">
          <mxGeometry x="1706" y="360" width="50" height="90" as="geometry" />
        </mxCell>
        <mxCell id="gC-gnkAE6lD0mVGR8m6e-78" value="" style="edgeStyle=orthogonalEdgeStyle;rounded=0;orthogonalLoop=1;jettySize=auto;html=1;endArrow=none;endFill=0;exitX=0.5;exitY=0;exitDx=0;exitDy=0;entryX=0.5;entryY=1;entryDx=0;entryDy=0;" edge="1" source="gC-gnkAE6lD0mVGR8m6e-75" target="gC-gnkAE6lD0mVGR8m6e-71" parent="WIyWlLk6GJQsqaUBKTNV-1">
          <mxGeometry relative="1" as="geometry">
            <mxPoint x="1280" y="385" as="sourcePoint" />
            <mxPoint x="1280" y="340" as="targetPoint" />
          </mxGeometry>
        </mxCell>
        <mxCell id="gC-gnkAE6lD0mVGR8m6e-79" value="" style="edgeStyle=orthogonalEdgeStyle;rounded=0;orthogonalLoop=1;jettySize=auto;html=1;endArrow=none;endFill=0;exitX=0.5;exitY=0;exitDx=0;exitDy=0;entryX=0.5;entryY=1;entryDx=0;entryDy=0;" edge="1" source="gC-gnkAE6lD0mVGR8m6e-76" target="gC-gnkAE6lD0mVGR8m6e-72" parent="WIyWlLk6GJQsqaUBKTNV-1">
          <mxGeometry relative="1" as="geometry">
            <mxPoint x="1480" y="370" as="sourcePoint" />
            <mxPoint x="1480" y="340" as="targetPoint" />
          </mxGeometry>
        </mxCell>
        <mxCell id="gC-gnkAE6lD0mVGR8m6e-80" value="" style="edgeStyle=orthogonalEdgeStyle;rounded=0;orthogonalLoop=1;jettySize=auto;html=1;endArrow=none;endFill=0;exitX=0.5;exitY=0;exitDx=0;exitDy=0;entryX=0.5;entryY=1;entryDx=0;entryDy=0;" edge="1" source="gC-gnkAE6lD0mVGR8m6e-77" target="gC-gnkAE6lD0mVGR8m6e-73" parent="WIyWlLk6GJQsqaUBKTNV-1">
          <mxGeometry relative="1" as="geometry">
            <mxPoint x="1620" y="370" as="sourcePoint" />
            <mxPoint x="1610" y="340" as="targetPoint" />
          </mxGeometry>
        </mxCell>
        <mxCell id="gC-gnkAE6lD0mVGR8m6e-81" value="" style="rounded=0;orthogonalLoop=1;jettySize=auto;html=1;endArrow=none;endFill=0;exitX=0;exitY=0.5;exitDx=0;exitDy=0;entryX=0.5;entryY=1;entryDx=0;entryDy=0;" edge="1" source="gC-gnkAE6lD0mVGR8m6e-74" target="gC-gnkAE6lD0mVGR8m6e-70" parent="WIyWlLk6GJQsqaUBKTNV-1">
          <mxGeometry relative="1" as="geometry">
            <mxPoint x="1741" y="370" as="sourcePoint" />
            <mxPoint x="1741" y="340" as="targetPoint" />
          </mxGeometry>
        </mxCell>
        <mxCell id="gC-gnkAE6lD0mVGR8m6e-82" value="" style="rounded=0;orthogonalLoop=1;jettySize=auto;html=1;endArrow=none;endFill=0;exitX=0.5;exitY=0;exitDx=0;exitDy=0;entryX=0.5;entryY=1;entryDx=0;entryDy=0;" edge="1" source="gC-gnkAE6lD0mVGR8m6e-73" target="gC-gnkAE6lD0mVGR8m6e-70" parent="WIyWlLk6GJQsqaUBKTNV-1">
          <mxGeometry relative="1" as="geometry">
            <mxPoint x="1820" y="255" as="sourcePoint" />
            <mxPoint x="1620" y="230" as="targetPoint" />
          </mxGeometry>
        </mxCell>
        <mxCell id="gC-gnkAE6lD0mVGR8m6e-83" value="" style="rounded=0;orthogonalLoop=1;jettySize=auto;html=1;endArrow=none;endFill=0;exitX=0.5;exitY=0;exitDx=0;exitDy=0;entryX=0.5;entryY=1;entryDx=0;entryDy=0;" edge="1" source="gC-gnkAE6lD0mVGR8m6e-72" target="gC-gnkAE6lD0mVGR8m6e-70" parent="WIyWlLk6GJQsqaUBKTNV-1">
          <mxGeometry relative="1" as="geometry">
            <mxPoint x="1741" y="280" as="sourcePoint" />
            <mxPoint x="1620" y="230" as="targetPoint" />
          </mxGeometry>
        </mxCell>
        <mxCell id="gC-gnkAE6lD0mVGR8m6e-84" value="" style="rounded=0;orthogonalLoop=1;jettySize=auto;html=1;endArrow=none;endFill=0;exitX=0.5;exitY=0;exitDx=0;exitDy=0;entryX=0.5;entryY=1;entryDx=0;entryDy=0;" edge="1" source="gC-gnkAE6lD0mVGR8m6e-71" target="gC-gnkAE6lD0mVGR8m6e-70" parent="WIyWlLk6GJQsqaUBKTNV-1">
          <mxGeometry relative="1" as="geometry">
            <mxPoint x="1610" y="280" as="sourcePoint" />
            <mxPoint x="1620" y="230" as="targetPoint" />
          </mxGeometry>
        </mxCell>
        <mxCell id="gC-gnkAE6lD0mVGR8m6e-85" value="Gyakornok" style="ellipse;shape=doubleEllipse;whiteSpace=wrap;html=1;" vertex="1" parent="WIyWlLk6GJQsqaUBKTNV-1">
          <mxGeometry x="2085" y="164" width="100" height="60" as="geometry" />
        </mxCell>
        <mxCell id="gC-gnkAE6lD0mVGR8m6e-86" value="Nev" style="ellipse;whiteSpace=wrap;html=1;" vertex="1" parent="WIyWlLk6GJQsqaUBKTNV-1">
          <mxGeometry x="1930" y="274" width="100" height="60" as="geometry" />
        </mxCell>
        <mxCell id="gC-gnkAE6lD0mVGR8m6e-87" value="Gyakorlat" style="ellipse;whiteSpace=wrap;html=1;" vertex="1" parent="WIyWlLk6GJQsqaUBKTNV-1">
          <mxGeometry x="2085" y="274" width="100" height="60" as="geometry" />
        </mxCell>
        <mxCell id="gC-gnkAE6lD0mVGR8m6e-88" value="Muszak" style="ellipse;shape=doubleEllipse;whiteSpace=wrap;html=1;fillColor=#dae8fc;strokeColor=#6c8ebf;" vertex="1" parent="WIyWlLk6GJQsqaUBKTNV-1">
          <mxGeometry x="2245" y="274" width="100" height="60" as="geometry" />
        </mxCell>
        <mxCell id="gC-gnkAE6lD0mVGR8m6e-89" value="Gykod" style="rhombus;whiteSpace=wrap;html=1;fontStyle=4" vertex="1" parent="WIyWlLk6GJQsqaUBKTNV-1">
          <mxGeometry x="2345" y="209" width="80" height="80" as="geometry" />
        </mxCell>
        <mxCell id="gC-gnkAE6lD0mVGR8m6e-90" value="" style="whiteSpace=wrap;html=1;" vertex="1" parent="WIyWlLk6GJQsqaUBKTNV-1">
          <mxGeometry x="1955" y="364" width="50" height="90" as="geometry" />
        </mxCell>
        <mxCell id="gC-gnkAE6lD0mVGR8m6e-92" value="" style="whiteSpace=wrap;html=1;" vertex="1" parent="WIyWlLk6GJQsqaUBKTNV-1">
          <mxGeometry x="2270.5" y="364" width="50" height="90" as="geometry" />
        </mxCell>
        <mxCell id="gC-gnkAE6lD0mVGR8m6e-93" value="" style="edgeStyle=orthogonalEdgeStyle;rounded=0;orthogonalLoop=1;jettySize=auto;html=1;endArrow=none;endFill=0;exitX=0.5;exitY=0;exitDx=0;exitDy=0;entryX=0.5;entryY=1;entryDx=0;entryDy=0;" edge="1" source="gC-gnkAE6lD0mVGR8m6e-90" target="gC-gnkAE6lD0mVGR8m6e-86" parent="WIyWlLk6GJQsqaUBKTNV-1">
          <mxGeometry relative="1" as="geometry">
            <mxPoint x="1790" y="389" as="sourcePoint" />
            <mxPoint x="1790" y="344" as="targetPoint" />
          </mxGeometry>
        </mxCell>
        <mxCell id="gC-gnkAE6lD0mVGR8m6e-95" value="" style="edgeStyle=orthogonalEdgeStyle;rounded=0;orthogonalLoop=1;jettySize=auto;html=1;endArrow=none;endFill=0;exitX=0.5;exitY=0;exitDx=0;exitDy=0;entryX=0.5;entryY=1;entryDx=0;entryDy=0;" edge="1" source="gC-gnkAE6lD0mVGR8m6e-92" target="gC-gnkAE6lD0mVGR8m6e-88" parent="WIyWlLk6GJQsqaUBKTNV-1">
          <mxGeometry relative="1" as="geometry">
            <mxPoint x="2184.5" y="374" as="sourcePoint" />
            <mxPoint x="2174.5" y="344" as="targetPoint" />
          </mxGeometry>
        </mxCell>
        <mxCell id="gC-gnkAE6lD0mVGR8m6e-96" value="" style="rounded=0;orthogonalLoop=1;jettySize=auto;html=1;endArrow=none;endFill=0;exitX=0;exitY=0.5;exitDx=0;exitDy=0;entryX=0.5;entryY=1;entryDx=0;entryDy=0;" edge="1" source="gC-gnkAE6lD0mVGR8m6e-89" target="gC-gnkAE6lD0mVGR8m6e-85" parent="WIyWlLk6GJQsqaUBKTNV-1">
          <mxGeometry relative="1" as="geometry">
            <mxPoint x="2276" y="374" as="sourcePoint" />
            <mxPoint x="2276" y="344" as="targetPoint" />
          </mxGeometry>
        </mxCell>
        <mxCell id="gC-gnkAE6lD0mVGR8m6e-97" value="" style="rounded=0;orthogonalLoop=1;jettySize=auto;html=1;endArrow=none;endFill=0;exitX=0.5;exitY=0;exitDx=0;exitDy=0;entryX=0.5;entryY=1;entryDx=0;entryDy=0;" edge="1" source="gC-gnkAE6lD0mVGR8m6e-88" target="gC-gnkAE6lD0mVGR8m6e-85" parent="WIyWlLk6GJQsqaUBKTNV-1">
          <mxGeometry relative="1" as="geometry">
            <mxPoint x="2355" y="259" as="sourcePoint" />
            <mxPoint x="2155" y="234" as="targetPoint" />
          </mxGeometry>
        </mxCell>
        <mxCell id="gC-gnkAE6lD0mVGR8m6e-98" value="" style="rounded=0;orthogonalLoop=1;jettySize=auto;html=1;endArrow=none;endFill=0;exitX=0.5;exitY=0;exitDx=0;exitDy=0;entryX=0.5;entryY=1;entryDx=0;entryDy=0;" edge="1" source="gC-gnkAE6lD0mVGR8m6e-87" target="gC-gnkAE6lD0mVGR8m6e-85" parent="WIyWlLk6GJQsqaUBKTNV-1">
          <mxGeometry relative="1" as="geometry">
            <mxPoint x="2276" y="284" as="sourcePoint" />
            <mxPoint x="2155" y="234" as="targetPoint" />
          </mxGeometry>
        </mxCell>
        <mxCell id="gC-gnkAE6lD0mVGR8m6e-99" value="" style="rounded=0;orthogonalLoop=1;jettySize=auto;html=1;endArrow=none;endFill=0;exitX=0.5;exitY=0;exitDx=0;exitDy=0;entryX=0.5;entryY=1;entryDx=0;entryDy=0;" edge="1" source="gC-gnkAE6lD0mVGR8m6e-86" target="gC-gnkAE6lD0mVGR8m6e-85" parent="WIyWlLk6GJQsqaUBKTNV-1">
          <mxGeometry relative="1" as="geometry">
            <mxPoint x="2145" y="284" as="sourcePoint" />
            <mxPoint x="2155" y="234" as="targetPoint" />
          </mxGeometry>
        </mxCell>
        <mxCell id="gC-gnkAE6lD0mVGR8m6e-100" value="Kezdete" style="ellipse;whiteSpace=wrap;html=1;" vertex="1" parent="WIyWlLk6GJQsqaUBKTNV-1">
          <mxGeometry x="2030" y="354" width="100" height="60" as="geometry" />
        </mxCell>
        <mxCell id="gC-gnkAE6lD0mVGR8m6e-101" value="Idotartalma" style="ellipse;whiteSpace=wrap;html=1;" vertex="1" parent="WIyWlLk6GJQsqaUBKTNV-1">
          <mxGeometry x="2145" y="354" width="100" height="60" as="geometry" />
        </mxCell>
        <mxCell id="gC-gnkAE6lD0mVGR8m6e-102" value="" style="whiteSpace=wrap;html=1;" vertex="1" parent="WIyWlLk6GJQsqaUBKTNV-1">
          <mxGeometry x="2055" y="444" width="50" height="90" as="geometry" />
        </mxCell>
        <mxCell id="gC-gnkAE6lD0mVGR8m6e-103" value="" style="whiteSpace=wrap;html=1;" vertex="1" parent="WIyWlLk6GJQsqaUBKTNV-1">
          <mxGeometry x="2170" y="444" width="50" height="90" as="geometry" />
        </mxCell>
        <mxCell id="gC-gnkAE6lD0mVGR8m6e-104" value="" style="edgeStyle=orthogonalEdgeStyle;rounded=0;orthogonalLoop=1;jettySize=auto;html=1;endArrow=none;endFill=0;exitX=0.5;exitY=0;exitDx=0;exitDy=0;entryX=0.5;entryY=1;entryDx=0;entryDy=0;" edge="1" parent="WIyWlLk6GJQsqaUBKTNV-1" source="gC-gnkAE6lD0mVGR8m6e-103" target="gC-gnkAE6lD0mVGR8m6e-101">
          <mxGeometry relative="1" as="geometry">
            <mxPoint x="2306" y="374" as="sourcePoint" />
            <mxPoint x="2195" y="414" as="targetPoint" />
          </mxGeometry>
        </mxCell>
        <mxCell id="gC-gnkAE6lD0mVGR8m6e-105" value="" style="edgeStyle=orthogonalEdgeStyle;rounded=0;orthogonalLoop=1;jettySize=auto;html=1;endArrow=none;endFill=0;exitX=0.5;exitY=0;exitDx=0;exitDy=0;entryX=0.5;entryY=1;entryDx=0;entryDy=0;" edge="1" parent="WIyWlLk6GJQsqaUBKTNV-1" source="gC-gnkAE6lD0mVGR8m6e-102" target="gC-gnkAE6lD0mVGR8m6e-100">
          <mxGeometry relative="1" as="geometry">
            <mxPoint x="2205" y="454" as="sourcePoint" />
            <mxPoint x="2205" y="424" as="targetPoint" />
          </mxGeometry>
        </mxCell>
        <mxCell id="gC-gnkAE6lD0mVGR8m6e-106" value="" style="rounded=0;orthogonalLoop=1;jettySize=auto;html=1;endArrow=none;endFill=0;exitX=0.5;exitY=0;exitDx=0;exitDy=0;entryX=0.5;entryY=1;entryDx=0;entryDy=0;" edge="1" parent="WIyWlLk6GJQsqaUBKTNV-1" source="gC-gnkAE6lD0mVGR8m6e-100" target="gC-gnkAE6lD0mVGR8m6e-87">
          <mxGeometry relative="1" as="geometry">
            <mxPoint x="2090" y="454" as="sourcePoint" />
            <mxPoint x="2135" y="354" as="targetPoint" />
          </mxGeometry>
        </mxCell>
        <mxCell id="gC-gnkAE6lD0mVGR8m6e-107" value="" style="rounded=0;orthogonalLoop=1;jettySize=auto;html=1;endArrow=none;endFill=0;exitX=0.5;exitY=1;exitDx=0;exitDy=0;entryX=0.5;entryY=0;entryDx=0;entryDy=0;" edge="1" parent="WIyWlLk6GJQsqaUBKTNV-1" source="gC-gnkAE6lD0mVGR8m6e-87" target="gC-gnkAE6lD0mVGR8m6e-101">
          <mxGeometry relative="1" as="geometry">
            <mxPoint x="2090" y="364" as="sourcePoint" />
            <mxPoint x="2145" y="344" as="targetPoint" />
          </mxGeometry>
        </mxCell>
        <mxCell id="gC-gnkAE6lD0mVGR8m6e-132" value="Vendeg" style="ellipse;shape=doubleEllipse;whiteSpace=wrap;html=1;" vertex="1" parent="WIyWlLk6GJQsqaUBKTNV-1">
          <mxGeometry x="-500" y="164" width="100" height="60" as="geometry" />
        </mxCell>
        <mxCell id="gC-gnkAE6lD0mVGR8m6e-133" value="" style="edgeStyle=orthogonalEdgeStyle;rounded=0;orthogonalLoop=1;jettySize=auto;html=1;endArrow=none;endFill=0;" edge="1" source="gC-gnkAE6lD0mVGR8m6e-134" target="gC-gnkAE6lD0mVGR8m6e-135" parent="WIyWlLk6GJQsqaUBKTNV-1">
          <mxGeometry relative="1" as="geometry" />
        </mxCell>
        <mxCell id="gC-gnkAE6lD0mVGR8m6e-134" value="" style="whiteSpace=wrap;html=1;" vertex="1" parent="WIyWlLk6GJQsqaUBKTNV-1">
          <mxGeometry x="-691" y="379" width="50" height="90" as="geometry" />
        </mxCell>
        <mxCell id="gC-gnkAE6lD0mVGR8m6e-135" value="Nev" style="ellipse;whiteSpace=wrap;html=1;" vertex="1" parent="WIyWlLk6GJQsqaUBKTNV-1">
          <mxGeometry x="-716" y="274" width="100" height="60" as="geometry" />
        </mxCell>
        <mxCell id="gC-gnkAE6lD0mVGR8m6e-136" value="Cim" style="ellipse;whiteSpace=wrap;html=1;" vertex="1" parent="WIyWlLk6GJQsqaUBKTNV-1">
          <mxGeometry x="-500" y="274" width="100" height="60" as="geometry" />
        </mxCell>
        <mxCell id="gC-gnkAE6lD0mVGR8m6e-137" value="Eletkor" style="ellipse;whiteSpace=wrap;html=1;" vertex="1" parent="WIyWlLk6GJQsqaUBKTNV-1">
          <mxGeometry x="-300" y="274" width="100" height="60" as="geometry" />
        </mxCell>
        <mxCell id="gC-gnkAE6lD0mVGR8m6e-138" value="Vkod" style="rhombus;whiteSpace=wrap;html=1;fontStyle=4" vertex="1" parent="WIyWlLk6GJQsqaUBKTNV-1">
          <mxGeometry x="-210" y="205" width="80" height="80" as="geometry" />
        </mxCell>
        <mxCell id="gC-gnkAE6lD0mVGR8m6e-139" value="Varos" style="ellipse;whiteSpace=wrap;html=1;" vertex="1" parent="WIyWlLk6GJQsqaUBKTNV-1">
          <mxGeometry x="-610" y="394" width="100" height="60" as="geometry" />
        </mxCell>
        <mxCell id="gC-gnkAE6lD0mVGR8m6e-140" value="Utca" style="ellipse;whiteSpace=wrap;html=1;" vertex="1" parent="WIyWlLk6GJQsqaUBKTNV-1">
          <mxGeometry x="-500" y="394" width="100" height="60" as="geometry" />
        </mxCell>
        <mxCell id="gC-gnkAE6lD0mVGR8m6e-141" value="Hazszam" style="ellipse;whiteSpace=wrap;html=1;" vertex="1" parent="WIyWlLk6GJQsqaUBKTNV-1">
          <mxGeometry x="-390" y="394" width="100" height="60" as="geometry" />
        </mxCell>
        <mxCell id="gC-gnkAE6lD0mVGR8m6e-142" value="" style="edgeStyle=orthogonalEdgeStyle;rounded=0;orthogonalLoop=1;jettySize=auto;html=1;endArrow=none;endFill=0;" edge="1" source="gC-gnkAE6lD0mVGR8m6e-143" target="gC-gnkAE6lD0mVGR8m6e-139" parent="WIyWlLk6GJQsqaUBKTNV-1">
          <mxGeometry relative="1" as="geometry" />
        </mxCell>
        <mxCell id="gC-gnkAE6lD0mVGR8m6e-143" value="" style="whiteSpace=wrap;html=1;" vertex="1" parent="WIyWlLk6GJQsqaUBKTNV-1">
          <mxGeometry x="-585" y="494" width="50" height="90" as="geometry" />
        </mxCell>
        <mxCell id="gC-gnkAE6lD0mVGR8m6e-144" value="" style="edgeStyle=orthogonalEdgeStyle;rounded=0;orthogonalLoop=1;jettySize=auto;html=1;endArrow=none;endFill=0;" edge="1" source="gC-gnkAE6lD0mVGR8m6e-145" target="gC-gnkAE6lD0mVGR8m6e-140" parent="WIyWlLk6GJQsqaUBKTNV-1">
          <mxGeometry relative="1" as="geometry" />
        </mxCell>
        <mxCell id="gC-gnkAE6lD0mVGR8m6e-145" value="" style="whiteSpace=wrap;html=1;" vertex="1" parent="WIyWlLk6GJQsqaUBKTNV-1">
          <mxGeometry x="-475" y="494" width="50" height="90" as="geometry" />
        </mxCell>
        <mxCell id="gC-gnkAE6lD0mVGR8m6e-146" value="" style="edgeStyle=orthogonalEdgeStyle;rounded=0;orthogonalLoop=1;jettySize=auto;html=1;endArrow=none;endFill=0;" edge="1" source="gC-gnkAE6lD0mVGR8m6e-147" target="gC-gnkAE6lD0mVGR8m6e-141" parent="WIyWlLk6GJQsqaUBKTNV-1">
          <mxGeometry relative="1" as="geometry" />
        </mxCell>
        <mxCell id="gC-gnkAE6lD0mVGR8m6e-147" value="" style="whiteSpace=wrap;html=1;" vertex="1" parent="WIyWlLk6GJQsqaUBKTNV-1">
          <mxGeometry x="-365" y="494" width="50" height="90" as="geometry" />
        </mxCell>
        <mxCell id="gC-gnkAE6lD0mVGR8m6e-148" value="" style="edgeStyle=orthogonalEdgeStyle;rounded=0;orthogonalLoop=1;jettySize=auto;html=1;endArrow=none;endFill=0;" edge="1" source="gC-gnkAE6lD0mVGR8m6e-149" target="gC-gnkAE6lD0mVGR8m6e-137" parent="WIyWlLk6GJQsqaUBKTNV-1">
          <mxGeometry relative="1" as="geometry" />
        </mxCell>
        <mxCell id="gC-gnkAE6lD0mVGR8m6e-149" value="" style="whiteSpace=wrap;html=1;" vertex="1" parent="WIyWlLk6GJQsqaUBKTNV-1">
          <mxGeometry x="-275" y="379" width="50" height="90" as="geometry" />
        </mxCell>
        <mxCell id="gC-gnkAE6lD0mVGR8m6e-150" value="" style="endArrow=none;html=1;rounded=0;exitX=0;exitY=0.5;exitDx=0;exitDy=0;entryX=0.5;entryY=1;entryDx=0;entryDy=0;" edge="1" source="gC-gnkAE6lD0mVGR8m6e-138" target="gC-gnkAE6lD0mVGR8m6e-132" parent="WIyWlLk6GJQsqaUBKTNV-1">
          <mxGeometry width="50" height="50" relative="1" as="geometry">
            <mxPoint x="-680" y="244" as="sourcePoint" />
            <mxPoint x="-630" y="194" as="targetPoint" />
          </mxGeometry>
        </mxCell>
        <mxCell id="gC-gnkAE6lD0mVGR8m6e-151" value="" style="endArrow=none;html=1;rounded=0;exitX=0.5;exitY=0;exitDx=0;exitDy=0;entryX=0.5;entryY=1;entryDx=0;entryDy=0;" edge="1" source="gC-gnkAE6lD0mVGR8m6e-135" target="gC-gnkAE6lD0mVGR8m6e-132" parent="WIyWlLk6GJQsqaUBKTNV-1">
          <mxGeometry width="50" height="50" relative="1" as="geometry">
            <mxPoint x="-740" y="259" as="sourcePoint" />
            <mxPoint x="-440" y="234" as="targetPoint" />
          </mxGeometry>
        </mxCell>
        <mxCell id="gC-gnkAE6lD0mVGR8m6e-152" value="" style="endArrow=none;html=1;rounded=0;exitX=0.5;exitY=0;exitDx=0;exitDy=0;entryX=0.5;entryY=1;entryDx=0;entryDy=0;" edge="1" source="gC-gnkAE6lD0mVGR8m6e-136" target="gC-gnkAE6lD0mVGR8m6e-132" parent="WIyWlLk6GJQsqaUBKTNV-1">
          <mxGeometry width="50" height="50" relative="1" as="geometry">
            <mxPoint x="-656" y="284" as="sourcePoint" />
            <mxPoint x="-440" y="234" as="targetPoint" />
          </mxGeometry>
        </mxCell>
        <mxCell id="gC-gnkAE6lD0mVGR8m6e-153" value="" style="endArrow=none;html=1;rounded=0;exitX=0.5;exitY=0;exitDx=0;exitDy=0;entryX=0.5;entryY=1;entryDx=0;entryDy=0;" edge="1" source="gC-gnkAE6lD0mVGR8m6e-137" target="gC-gnkAE6lD0mVGR8m6e-132" parent="WIyWlLk6GJQsqaUBKTNV-1">
          <mxGeometry width="50" height="50" relative="1" as="geometry">
            <mxPoint x="-440" y="284" as="sourcePoint" />
            <mxPoint x="-440" y="234" as="targetPoint" />
          </mxGeometry>
        </mxCell>
        <mxCell id="gC-gnkAE6lD0mVGR8m6e-154" value="" style="endArrow=none;html=1;rounded=0;exitX=0.5;exitY=1;exitDx=0;exitDy=0;entryX=0.5;entryY=0;entryDx=0;entryDy=0;" edge="1" source="gC-gnkAE6lD0mVGR8m6e-136" target="gC-gnkAE6lD0mVGR8m6e-139" parent="WIyWlLk6GJQsqaUBKTNV-1">
          <mxGeometry width="50" height="50" relative="1" as="geometry">
            <mxPoint x="-240" y="284" as="sourcePoint" />
            <mxPoint x="-440" y="234" as="targetPoint" />
          </mxGeometry>
        </mxCell>
        <mxCell id="gC-gnkAE6lD0mVGR8m6e-155" value="" style="endArrow=none;html=1;rounded=0;exitX=0.5;exitY=1;exitDx=0;exitDy=0;entryX=0.5;entryY=0;entryDx=0;entryDy=0;" edge="1" source="gC-gnkAE6lD0mVGR8m6e-136" target="gC-gnkAE6lD0mVGR8m6e-140" parent="WIyWlLk6GJQsqaUBKTNV-1">
          <mxGeometry width="50" height="50" relative="1" as="geometry">
            <mxPoint x="-440" y="344" as="sourcePoint" />
            <mxPoint x="-550" y="404" as="targetPoint" />
          </mxGeometry>
        </mxCell>
        <mxCell id="gC-gnkAE6lD0mVGR8m6e-156" value="" style="endArrow=none;html=1;rounded=0;exitX=0.5;exitY=1;exitDx=0;exitDy=0;entryX=0.5;entryY=0;entryDx=0;entryDy=0;" edge="1" source="gC-gnkAE6lD0mVGR8m6e-136" target="gC-gnkAE6lD0mVGR8m6e-141" parent="WIyWlLk6GJQsqaUBKTNV-1">
          <mxGeometry width="50" height="50" relative="1" as="geometry">
            <mxPoint x="-440" y="344" as="sourcePoint" />
            <mxPoint x="-440" y="404" as="targetPoint" />
          </mxGeometry>
        </mxCell>
        <mxCell id="gC-gnkAE6lD0mVGR8m6e-157" value="Rendeles" style="ellipse;shape=doubleEllipse;whiteSpace=wrap;html=1;" vertex="1" parent="WIyWlLk6GJQsqaUBKTNV-1">
          <mxGeometry x="20" y="160" width="100" height="60" as="geometry" />
        </mxCell>
        <mxCell id="gC-gnkAE6lD0mVGR8m6e-158" value="Etel" style="ellipse;whiteSpace=wrap;html=1;" vertex="1" parent="WIyWlLk6GJQsqaUBKTNV-1">
          <mxGeometry x="-40" y="270" width="100" height="60" as="geometry" />
        </mxCell>
        <mxCell id="gC-gnkAE6lD0mVGR8m6e-159" value="Osszeg" style="ellipse;whiteSpace=wrap;html=1;" vertex="1" parent="WIyWlLk6GJQsqaUBKTNV-1">
          <mxGeometry x="80" y="270" width="100" height="60" as="geometry" />
        </mxCell>
        <mxCell id="gC-gnkAE6lD0mVGR8m6e-160" value="" style="whiteSpace=wrap;html=1;" vertex="1" parent="WIyWlLk6GJQsqaUBKTNV-1">
          <mxGeometry x="-15" y="375" width="50" height="90" as="geometry" />
        </mxCell>
        <mxCell id="gC-gnkAE6lD0mVGR8m6e-161" value="" style="whiteSpace=wrap;html=1;" vertex="1" parent="WIyWlLk6GJQsqaUBKTNV-1">
          <mxGeometry x="105" y="375" width="50" height="90" as="geometry" />
        </mxCell>
        <mxCell id="gC-gnkAE6lD0mVGR8m6e-162" value="" style="endArrow=none;html=1;rounded=0;exitX=0.5;exitY=0;exitDx=0;exitDy=0;entryX=0.5;entryY=1;entryDx=0;entryDy=0;" edge="1" parent="WIyWlLk6GJQsqaUBKTNV-1" source="gC-gnkAE6lD0mVGR8m6e-160" target="gC-gnkAE6lD0mVGR8m6e-158">
          <mxGeometry width="50" height="50" relative="1" as="geometry">
            <mxPoint x="20" y="549" as="sourcePoint" />
            <mxPoint x="-180" y="499" as="targetPoint" />
          </mxGeometry>
        </mxCell>
        <mxCell id="gC-gnkAE6lD0mVGR8m6e-163" value="" style="endArrow=none;html=1;rounded=0;exitX=0.5;exitY=0;exitDx=0;exitDy=0;entryX=0.5;entryY=1;entryDx=0;entryDy=0;" edge="1" parent="WIyWlLk6GJQsqaUBKTNV-1" source="gC-gnkAE6lD0mVGR8m6e-161" target="gC-gnkAE6lD0mVGR8m6e-159">
          <mxGeometry width="50" height="50" relative="1" as="geometry">
            <mxPoint x="20" y="370" as="sourcePoint" />
            <mxPoint x="20" y="340" as="targetPoint" />
          </mxGeometry>
        </mxCell>
        <mxCell id="gC-gnkAE6lD0mVGR8m6e-164" value="" style="endArrow=none;html=1;rounded=0;exitX=0.5;exitY=0;exitDx=0;exitDy=0;entryX=0.5;entryY=1;entryDx=0;entryDy=0;" edge="1" parent="WIyWlLk6GJQsqaUBKTNV-1" source="gC-gnkAE6lD0mVGR8m6e-159" target="gC-gnkAE6lD0mVGR8m6e-157">
          <mxGeometry width="50" height="50" relative="1" as="geometry">
            <mxPoint x="140" y="350" as="sourcePoint" />
            <mxPoint x="140" y="320" as="targetPoint" />
          </mxGeometry>
        </mxCell>
        <mxCell id="gC-gnkAE6lD0mVGR8m6e-165" value="" style="endArrow=none;html=1;rounded=0;exitX=0.5;exitY=0;exitDx=0;exitDy=0;entryX=0.5;entryY=1;entryDx=0;entryDy=0;" edge="1" parent="WIyWlLk6GJQsqaUBKTNV-1" source="gC-gnkAE6lD0mVGR8m6e-158" target="gC-gnkAE6lD0mVGR8m6e-157">
          <mxGeometry width="50" height="50" relative="1" as="geometry">
            <mxPoint x="140" y="260" as="sourcePoint" />
            <mxPoint x="60" y="230" as="targetPoint" />
          </mxGeometry>
        </mxCell>
        <mxCell id="gC-gnkAE6lD0mVGR8m6e-166" value="V_r" style="rhombus;whiteSpace=wrap;html=1;fontStyle=0" vertex="1" parent="WIyWlLk6GJQsqaUBKTNV-1">
          <mxGeometry x="-110" y="205" width="80" height="80" as="geometry" />
        </mxCell>
        <mxCell id="gC-gnkAE6lD0mVGR8m6e-167" value="E_r" style="rhombus;whiteSpace=wrap;html=1;fontStyle=0" vertex="1" parent="WIyWlLk6GJQsqaUBKTNV-1">
          <mxGeometry x="170" y="205" width="80" height="80" as="geometry" />
        </mxCell>
        <mxCell id="gC-gnkAE6lD0mVGR8m6e-168" value="" style="endArrow=none;html=1;rounded=0;exitX=1;exitY=0.5;exitDx=0;exitDy=0;entryX=0.5;entryY=1;entryDx=0;entryDy=0;" edge="1" parent="WIyWlLk6GJQsqaUBKTNV-1" source="gC-gnkAE6lD0mVGR8m6e-166" target="gC-gnkAE6lD0mVGR8m6e-157">
          <mxGeometry width="50" height="50" relative="1" as="geometry">
            <mxPoint x="20" y="260" as="sourcePoint" />
            <mxPoint x="80" y="230" as="targetPoint" />
          </mxGeometry>
        </mxCell>
        <mxCell id="gC-gnkAE6lD0mVGR8m6e-169" value="" style="endArrow=none;html=1;rounded=0;exitX=0.5;exitY=1;exitDx=0;exitDy=0;entryX=0;entryY=0.5;entryDx=0;entryDy=0;" edge="1" parent="WIyWlLk6GJQsqaUBKTNV-1" source="gC-gnkAE6lD0mVGR8m6e-157" target="gC-gnkAE6lD0mVGR8m6e-167">
          <mxGeometry width="50" height="50" relative="1" as="geometry">
            <mxPoint x="-20" y="230" as="sourcePoint" />
            <mxPoint x="80" y="230" as="targetPoint" />
          </mxGeometry>
        </mxCell>
        <mxCell id="gC-gnkAE6lD0mVGR8m6e-170" value="E_f" style="rhombus;whiteSpace=wrap;html=1;borderBottom=1px dotted #000;" vertex="1" parent="WIyWlLk6GJQsqaUBKTNV-1">
          <mxGeometry x="850" y="200" width="80" height="80" as="geometry" />
        </mxCell>
        <mxCell id="gC-gnkAE6lD0mVGR8m6e-171" value="" style="rounded=0;orthogonalLoop=1;jettySize=auto;html=1;endArrow=none;endFill=0;exitX=1;exitY=0.5;exitDx=0;exitDy=0;entryX=0.5;entryY=1;entryDx=0;entryDy=0;" edge="1" parent="WIyWlLk6GJQsqaUBKTNV-1" source="gC-gnkAE6lD0mVGR8m6e-170" target="gC-gnkAE6lD0mVGR8m6e-53">
          <mxGeometry relative="1" as="geometry">
            <mxPoint x="990" y="280" as="sourcePoint" />
            <mxPoint x="1120" y="230" as="targetPoint" />
          </mxGeometry>
        </mxCell>
        <mxCell id="gC-gnkAE6lD0mVGR8m6e-172" value="" style="rounded=0;orthogonalLoop=1;jettySize=auto;html=1;endArrow=classic;endFill=1;exitX=0.5;exitY=1;exitDx=0;exitDy=0;entryX=0.5;entryY=1;entryDx=0;entryDy=0;dashed=1;" edge="1" parent="WIyWlLk6GJQsqaUBKTNV-1" source="gC-gnkAE6lD0mVGR8m6e-170" target="gC-gnkAE6lD0mVGR8m6e-24">
          <mxGeometry relative="1" as="geometry">
            <mxPoint x="940" y="250" as="sourcePoint" />
            <mxPoint x="1120" y="230" as="targetPoint" />
            <Array as="points">
              <mxPoint x="890" y="650" />
              <mxPoint x="300" y="650" />
            </Array>
          </mxGeometry>
        </mxCell>
        <mxCell id="gC-gnkAE6lD0mVGR8m6e-173" value="" style="rounded=0;orthogonalLoop=1;jettySize=auto;html=1;endArrow=classic;endFill=1;exitX=0.5;exitY=1;exitDx=0;exitDy=0;entryX=0.353;entryY=0.854;entryDx=0;entryDy=0;dashed=1;entryPerimeter=0;" edge="1" parent="WIyWlLk6GJQsqaUBKTNV-1">
          <mxGeometry relative="1" as="geometry">
            <mxPoint x="1405" y="285" as="sourcePoint" />
            <mxPoint x="287.24000000000024" y="273.32000000000016" as="targetPoint" />
            <Array as="points">
              <mxPoint x="1400" y="670" />
              <mxPoint x="287" y="680" />
            </Array>
          </mxGeometry>
        </mxCell>
        <mxCell id="gC-gnkAE6lD0mVGR8m6e-174" value="" style="rounded=0;orthogonalLoop=1;jettySize=auto;html=1;endArrow=classic;endFill=1;exitX=0.5;exitY=1;exitDx=0;exitDy=0;entryX=0;entryY=1;entryDx=0;entryDy=0;dashed=1;" edge="1" parent="WIyWlLk6GJQsqaUBKTNV-1" source="gC-gnkAE6lD0mVGR8m6e-188">
          <mxGeometry relative="1" as="geometry">
            <mxPoint x="1887" y="282" as="sourcePoint" />
            <mxPoint x="276" y="262" as="targetPoint" />
            <Array as="points">
              <mxPoint x="1887" y="697" />
              <mxPoint x="276" y="697" />
            </Array>
          </mxGeometry>
        </mxCell>
        <mxCell id="gC-gnkAE6lD0mVGR8m6e-175" value="" style="rounded=0;orthogonalLoop=1;jettySize=auto;html=1;endArrow=classic;endFill=1;exitX=0.5;exitY=1;exitDx=0;exitDy=0;entryX=0.078;entryY=0.584;entryDx=0;entryDy=0;dashed=1;entryPerimeter=0;" edge="1" parent="WIyWlLk6GJQsqaUBKTNV-1" source="gC-gnkAE6lD0mVGR8m6e-167" target="gC-gnkAE6lD0mVGR8m6e-24">
          <mxGeometry relative="1" as="geometry">
            <mxPoint x="900" y="290" as="sourcePoint" />
            <mxPoint x="309" y="295" as="targetPoint" />
            <Array as="points">
              <mxPoint x="210" y="390" />
              <mxPoint x="265" y="390" />
            </Array>
          </mxGeometry>
        </mxCell>
        <mxCell id="gC-gnkAE6lD0mVGR8m6e-176" value="" style="endArrow=none;dashed=1;html=1;dashPattern=1 3;strokeWidth=2;rounded=0;fontFamily=Helvetica;fontSize=12;fontColor=default;fontStyle=4;exitX=0.155;exitY=0.641;exitDx=0;exitDy=0;exitPerimeter=0;entryX=0.869;entryY=0.635;entryDx=0;entryDy=0;entryPerimeter=0;" edge="1" parent="WIyWlLk6GJQsqaUBKTNV-1" source="gC-gnkAE6lD0mVGR8m6e-167" target="gC-gnkAE6lD0mVGR8m6e-167">
          <mxGeometry width="50" height="50" relative="1" as="geometry">
            <mxPoint x="190" y="255" as="sourcePoint" />
            <mxPoint x="230" y="254" as="targetPoint" />
          </mxGeometry>
        </mxCell>
        <mxCell id="gC-gnkAE6lD0mVGR8m6e-177" value="" style="endArrow=none;dashed=1;html=1;dashPattern=1 3;strokeWidth=2;rounded=0;fontFamily=Helvetica;fontSize=12;fontColor=default;fontStyle=4;exitX=0.172;exitY=0.656;exitDx=0;exitDy=0;entryX=0.866;entryY=0.63;entryDx=0;entryDy=0;exitPerimeter=0;entryPerimeter=0;" edge="1" parent="WIyWlLk6GJQsqaUBKTNV-1" source="gC-gnkAE6lD0mVGR8m6e-24" target="gC-gnkAE6lD0mVGR8m6e-24">
          <mxGeometry width="50" height="50" relative="1" as="geometry">
            <mxPoint x="279" y="251" as="sourcePoint" />
            <mxPoint x="319" y="250" as="targetPoint" />
          </mxGeometry>
        </mxCell>
        <mxCell id="gC-gnkAE6lD0mVGR8m6e-178" value="" style="endArrow=none;dashed=1;html=1;dashPattern=1 3;strokeWidth=2;rounded=0;fontFamily=Helvetica;fontSize=12;fontColor=default;fontStyle=4;exitX=0.145;exitY=0.643;exitDx=0;exitDy=0;exitPerimeter=0;entryX=0.869;entryY=0.631;entryDx=0;entryDy=0;entryPerimeter=0;" edge="1" parent="WIyWlLk6GJQsqaUBKTNV-1" source="gC-gnkAE6lD0mVGR8m6e-166" target="gC-gnkAE6lD0mVGR8m6e-166">
          <mxGeometry width="50" height="50" relative="1" as="geometry">
            <mxPoint x="192" y="266" as="sourcePoint" />
            <mxPoint x="250" y="266" as="targetPoint" />
          </mxGeometry>
        </mxCell>
        <mxCell id="gC-gnkAE6lD0mVGR8m6e-179" value="" style="rounded=0;orthogonalLoop=1;jettySize=auto;html=1;endArrow=classic;endFill=1;exitX=0.5;exitY=1;exitDx=0;exitDy=0;dashed=1;entryX=0.5;entryY=1;entryDx=0;entryDy=0;" edge="1" parent="WIyWlLk6GJQsqaUBKTNV-1" source="gC-gnkAE6lD0mVGR8m6e-166" target="gC-gnkAE6lD0mVGR8m6e-138">
          <mxGeometry relative="1" as="geometry">
            <mxPoint x="220" y="295" as="sourcePoint" />
            <mxPoint x="-90" y="360" as="targetPoint" />
            <Array as="points">
              <mxPoint x="-70" y="430" />
              <mxPoint x="-120" y="430" />
              <mxPoint x="-170" y="430" />
            </Array>
          </mxGeometry>
        </mxCell>
        <mxCell id="gC-gnkAE6lD0mVGR8m6e-180" value="" style="endArrow=none;dashed=1;html=1;dashPattern=1 3;strokeWidth=2;rounded=0;fontFamily=Helvetica;fontSize=12;fontColor=default;fontStyle=4;exitX=0.16;exitY=0.636;exitDx=0;exitDy=0;entryX=0.838;entryY=0.633;entryDx=0;entryDy=0;entryPerimeter=0;exitPerimeter=0;elbow=vertical;" edge="1" parent="WIyWlLk6GJQsqaUBKTNV-1" source="gC-gnkAE6lD0mVGR8m6e-170" target="gC-gnkAE6lD0mVGR8m6e-170">
          <mxGeometry width="50" height="50" relative="1" as="geometry">
            <mxPoint x="283" y="267" as="sourcePoint" />
            <mxPoint x="960" y="260" as="targetPoint" />
          </mxGeometry>
        </mxCell>
        <mxCell id="gC-gnkAE6lD0mVGR8m6e-184" value="" style="endArrow=none;dashed=1;html=1;dashPattern=1 3;strokeWidth=2;rounded=0;fontFamily=Helvetica;fontSize=12;fontColor=default;fontStyle=4;exitX=0.16;exitY=0.636;exitDx=0;exitDy=0;entryX=0.838;entryY=0.633;entryDx=0;entryDy=0;entryPerimeter=0;exitPerimeter=0;" edge="1" source="gC-gnkAE6lD0mVGR8m6e-185" target="gC-gnkAE6lD0mVGR8m6e-185" parent="WIyWlLk6GJQsqaUBKTNV-1">
          <mxGeometry width="50" height="50" relative="1" as="geometry">
            <mxPoint x="743" y="331" as="sourcePoint" />
            <mxPoint x="1420" y="324" as="targetPoint" />
          </mxGeometry>
        </mxCell>
        <mxCell id="gC-gnkAE6lD0mVGR8m6e-185" value="E_fsz" style="rhombus;whiteSpace=wrap;html=1;borderBottom=1px dotted #000;" vertex="1" parent="WIyWlLk6GJQsqaUBKTNV-1">
          <mxGeometry x="1365" y="205" width="80" height="80" as="geometry" />
        </mxCell>
        <mxCell id="gC-gnkAE6lD0mVGR8m6e-186" value="" style="endArrow=none;dashed=1;html=1;dashPattern=1 3;strokeWidth=2;rounded=0;fontFamily=Helvetica;fontSize=12;fontColor=default;fontStyle=4;exitX=0.16;exitY=0.636;exitDx=0;exitDy=0;entryX=0.838;entryY=0.633;entryDx=0;entryDy=0;entryPerimeter=0;exitPerimeter=0;" edge="1" parent="WIyWlLk6GJQsqaUBKTNV-1">
          <mxGeometry width="50" height="50" relative="1" as="geometry">
            <mxPoint x="1378" y="260" as="sourcePoint" />
            <mxPoint x="1432" y="260" as="targetPoint" />
          </mxGeometry>
        </mxCell>
        <mxCell id="gC-gnkAE6lD0mVGR8m6e-188" value="E_gy" style="rhombus;whiteSpace=wrap;html=1;borderBottom=1px dotted #000;" vertex="1" parent="WIyWlLk6GJQsqaUBKTNV-1">
          <mxGeometry x="1850" y="205" width="80" height="80" as="geometry" />
        </mxCell>
        <mxCell id="gC-gnkAE6lD0mVGR8m6e-189" value="" style="endArrow=none;dashed=1;html=1;dashPattern=1 3;strokeWidth=2;rounded=0;fontFamily=Helvetica;fontSize=12;fontColor=default;fontStyle=4;exitX=0.16;exitY=0.636;exitDx=0;exitDy=0;entryX=0.838;entryY=0.633;entryDx=0;entryDy=0;entryPerimeter=0;exitPerimeter=0;" edge="1" parent="WIyWlLk6GJQsqaUBKTNV-1">
          <mxGeometry width="50" height="50" relative="1" as="geometry">
            <mxPoint x="1863" y="260" as="sourcePoint" />
            <mxPoint x="1917" y="260" as="targetPoint" />
          </mxGeometry>
        </mxCell>
        <mxCell id="gC-gnkAE6lD0mVGR8m6e-190" value="" style="rounded=0;orthogonalLoop=1;jettySize=auto;html=1;endArrow=none;endFill=0;exitX=0.5;exitY=1;exitDx=0;exitDy=0;entryX=1;entryY=0.5;entryDx=0;entryDy=0;" edge="1" parent="WIyWlLk6GJQsqaUBKTNV-1" source="gC-gnkAE6lD0mVGR8m6e-70" target="gC-gnkAE6lD0mVGR8m6e-185">
          <mxGeometry relative="1" as="geometry">
            <mxPoint x="1770" y="255" as="sourcePoint" />
            <mxPoint x="1610" y="230" as="targetPoint" />
          </mxGeometry>
        </mxCell>
        <mxCell id="gC-gnkAE6lD0mVGR8m6e-191" value="" style="rounded=0;orthogonalLoop=1;jettySize=auto;html=1;endArrow=none;endFill=0;exitX=0.5;exitY=1;exitDx=0;exitDy=0;entryX=1;entryY=0.5;entryDx=0;entryDy=0;" edge="1" parent="WIyWlLk6GJQsqaUBKTNV-1" source="gC-gnkAE6lD0mVGR8m6e-85" target="gC-gnkAE6lD0mVGR8m6e-188">
          <mxGeometry relative="1" as="geometry">
            <mxPoint x="1610" y="230" as="sourcePoint" />
            <mxPoint x="1455" y="255" as="targetPoint" />
          </mxGeometry>
        </mxCell>
        <mxCell id="gC-gnkAE6lD0mVGR8m6e-192" value="" style="endArrow=none;html=1;rounded=0;exitX=0.5;exitY=1;exitDx=0;exitDy=0;entryX=0.5;entryY=0;entryDx=0;entryDy=0;" edge="1" parent="WIyWlLk6GJQsqaUBKTNV-1" source="gC-gnkAE6lD0mVGR8m6e-18" target="gC-gnkAE6lD0mVGR8m6e-19">
          <mxGeometry width="50" height="50" relative="1" as="geometry">
            <mxPoint x="790" y="280" as="sourcePoint" />
            <mxPoint x="590" y="230" as="targetPoint" />
          </mxGeometry>
        </mxCell>
        <mxCell id="gC-gnkAE6lD0mVGR8m6e-193" value="" style="endArrow=none;html=1;rounded=0;exitX=0.5;exitY=1;exitDx=0;exitDy=0;entryX=0.5;entryY=0;entryDx=0;entryDy=0;" edge="1" parent="WIyWlLk6GJQsqaUBKTNV-1" source="gC-gnkAE6lD0mVGR8m6e-18" target="gC-gnkAE6lD0mVGR8m6e-157">
          <mxGeometry width="50" height="50" relative="1" as="geometry">
            <mxPoint x="840" as="sourcePoint" />
            <mxPoint x="590" y="170" as="targetPoint" />
          </mxGeometry>
        </mxCell>
        <mxCell id="gC-gnkAE6lD0mVGR8m6e-194" value="" style="endArrow=none;html=1;rounded=0;exitX=0.5;exitY=1;exitDx=0;exitDy=0;entryX=0.5;entryY=0;entryDx=0;entryDy=0;" edge="1" parent="WIyWlLk6GJQsqaUBKTNV-1" source="gC-gnkAE6lD0mVGR8m6e-18" target="gC-gnkAE6lD0mVGR8m6e-53">
          <mxGeometry width="50" height="50" relative="1" as="geometry">
            <mxPoint x="840" as="sourcePoint" />
            <mxPoint x="590" y="170" as="targetPoint" />
          </mxGeometry>
        </mxCell>
        <mxCell id="gC-gnkAE6lD0mVGR8m6e-195" value="" style="endArrow=none;html=1;rounded=0;exitX=0.5;exitY=1;exitDx=0;exitDy=0;entryX=0.5;entryY=0;entryDx=0;entryDy=0;" edge="1" parent="WIyWlLk6GJQsqaUBKTNV-1" source="gC-gnkAE6lD0mVGR8m6e-18" target="gC-gnkAE6lD0mVGR8m6e-70">
          <mxGeometry width="50" height="50" relative="1" as="geometry">
            <mxPoint x="840" as="sourcePoint" />
            <mxPoint x="1120" y="170" as="targetPoint" />
          </mxGeometry>
        </mxCell>
        <mxCell id="gC-gnkAE6lD0mVGR8m6e-196" value="" style="endArrow=none;html=1;rounded=0;exitX=0.5;exitY=1;exitDx=0;exitDy=0;entryX=0.5;entryY=0;entryDx=0;entryDy=0;" edge="1" parent="WIyWlLk6GJQsqaUBKTNV-1" source="gC-gnkAE6lD0mVGR8m6e-18" target="gC-gnkAE6lD0mVGR8m6e-85">
          <mxGeometry width="50" height="50" relative="1" as="geometry">
            <mxPoint x="840" as="sourcePoint" />
            <mxPoint x="1610" y="170" as="targetPoint" />
          </mxGeometry>
        </mxCell>
        <mxCell id="gC-gnkAE6lD0mVGR8m6e-197" value="" style="endArrow=none;html=1;rounded=0;exitX=0.5;exitY=1;exitDx=0;exitDy=0;entryX=0.5;entryY=0;entryDx=0;entryDy=0;" edge="1" parent="WIyWlLk6GJQsqaUBKTNV-1" source="gC-gnkAE6lD0mVGR8m6e-18" target="gC-gnkAE6lD0mVGR8m6e-132">
          <mxGeometry width="50" height="50" relative="1" as="geometry">
            <mxPoint x="890" y="-20" as="sourcePoint" />
            <mxPoint x="80" y="170" as="targetPoint" />
          </mxGeometry>
        </mxCell>
      </root>
    </mxGraphModel>
  </diagram>
</mxfile>
